<svg xmlns="http://www.w3.org/2000/svg" width="512" height="512" viewBox="0 0 512 512" version="1.1">
	<path d="M 364.200 49.200 C 363.540 49.860, 363 51.679, 363 53.242 C 363 54.805, 361.699 58.877, 360.110 62.292 C 351.905 79.915, 316.671 156.167, 289.548 215 C 272.686 251.575, 258.577 281.815, 258.195 282.200 C 257.651 282.748, 219.217 201.270, 189.466 136.500 C 159.371 70.979, 149.519 50.768, 147.259 49.908 C 145.936 49.405, 121.109 49, 91.609 49 L 38.349 49 36.174 51.314 L 34 53.629 33.903 153.064 C 33.849 207.754, 33.482 298.625, 33.086 355 C 32.487 440.426, 32.593 457.750, 33.719 459 C 34.873 460.282, 41.575 460.544, 79.808 460.806 L 124.547 461.111 126.769 458.745 L 128.992 456.380 129.246 337.440 L 129.500 218.500 132.150 224 C 134.623 229.133, 143.459 248.606, 152.796 269.500 C 162.013 290.127, 190.711 353.782, 205.884 387.256 C 209.684 395.640, 213.477 404.075, 214.312 406 C 215.147 407.925, 216.881 410.726, 218.165 412.224 L 220.500 414.948 255.463 415.096 C 288.618 415.237, 290.489 415.148, 291.652 413.372 C 292.327 412.343, 297.455 401.150, 303.047 388.500 C 308.640 375.850, 321.089 347.725, 330.713 326 C 340.337 304.275, 351.590 278.850, 355.720 269.500 C 375.214 225.370, 379.251 216.433, 380.093 215.550 C 380.636 214.982, 381 263.319, 381 335.866 C 381 417.545, 381.338 457.763, 382.035 459.066 C 383.035 460.933, 384.597 461, 427.470 461 C 451.909 461, 472.952 460.589, 474.277 460.085 L 476.684 459.169 477.359 289.835 C 478.259 63.929, 478.268 50.242, 477.523 49.037 C 476.543 47.452, 365.789 47.611, 364.200 49.200" stroke="none" fill="black" fill-rule="evenodd"/>
</svg>